<?xml version="1.0" encoding="iso-8859-1"?>
<!-- Generator: Adobe Illustrator 19.1.0, SVG Export Plug-In . SVG Version: 6.00 Build 0)  -->
<svg version="1.1" id="&#x30EC;&#x30A4;&#x30E4;&#x30FC;_1"
	 xmlns="http://www.w3.org/2000/svg" xmlns:xlink="http://www.w3.org/1999/xlink" x="0px" y="0px" viewBox="0 0 1127.409 143.005"
	 style="enable-background:new 0 0 1127.409 143.005;" xml:space="preserve">
<g id="_x36_yGemJ.tif">
	<g>
		<path style="fill:#FFFFFF;" d="M389.284,45.782c-4.332,17.591-8.665,35.182-12.996,52.773c-1.352,5.493-2.574,11.024-4.142,16.455
			c-0.357,1.235-1.859,2.982-2.908,3.036c-5.794,0.297-11.61,0.142-17.624,0.142c-5.876-24.023-11.67-47.71-17.464-71.397
			c-0.431,0.021-0.862,0.043-1.293,0.064c0,23.608,0,47.217,0,71.077c-6.892,0-12.825,0-19.17,0c0-33.03,0-66.06,0-99.427
			c9.888,0,19.801,0,30.275,0c5.696,21.433,11.442,43.054,17.187,64.674c0.315,0.013,0.631,0.026,0.946,0.038
			c1.417-5.286,2.859-10.567,4.248-15.86c3.927-14.966,7.964-29.906,11.647-44.932c0.857-3.495,2.315-4.438,5.747-4.337
			c8.48,0.25,16.972,0.082,25.895,0.082c0,33.273,0,66.293,0,99.671c-6.047,0-12.12,0-18.883,0c0-23.973,0-48.033,0-72.093
			C390.262,45.76,389.773,45.771,389.284,45.782z"/>
		<path style="fill:#FFFFFF;" d="M694.213,18.313c24.709,0,49.007,0,73.687,0c0,5.494,0,10.875,0,16.768
			c-17.441,0-34.846,0-52.622,0c0,7.527,0,14.553,0,21.991c16.299,0,32.401,0,48.905,0c0,5.763,0,11.134,0,17.078
			c-16.258,0-32.493,0-48.999,0c0,9.161,0,17.759,0,26.827c18.157,0,36.25,0,54.718,0c0,5.835,0,11.216,0,16.912
			c-25.13,0-50.21,0-75.689,0C694.213,84.872,694.213,51.832,694.213,18.313z"/>
		<path style="fill:#FFFFFF;" d="M1046,86.092c6.894-0.729,13.259-1.401,19.794-2.092c0.374,1.239,0.655,1.992,0.827,2.768
			c3.738,16.844,19.796,18.669,31.048,14.488c5.745-2.134,8.901-6.736,8.845-12.034c-0.062-5.994-4.239-8.423-8.984-9.925
			c-8.219-2.601-16.619-4.631-24.837-7.233c-9.008-2.852-16.634-7.66-20.713-16.707c-6.269-13.906,0.202-30.181,14.849-35.858
			c13.357-5.177,27.082-4.977,40.403,0.286c10.859,4.29,17.309,14.68,16.9,26.456c-6.509,0.386-13.081,0.776-19.471,1.155
			c-6.041-13.184-16.572-17.485-28.998-12.23c-3.427,1.449-6.779,3.71-5.95,7.578c0.597,2.784,3.02,6.31,5.52,7.339
			c7.164,2.948,14.806,4.718,22.212,7.101c4.573,1.471,9.219,2.871,13.551,4.903c11.263,5.285,16.568,14.489,16.409,26.821
			c-0.159,12.251-5.493,21.884-16.662,26.849c-14.907,6.627-30.523,6.725-45.527,0.266
			C1052.865,110.706,1047.759,99.843,1046,86.092z"/>
		<path style="fill:#FFFFFF;" d="M983.434,18.37c7.099,0,13.561,0,20.533,0c0.103,1.398,0.3,2.82,0.299,4.241
			c-0.004,19.163,0.03,38.326-0.109,57.488c-0.034,4.651-0.408,9.332-1.06,13.938c-2.072,14.659-12.761,24.623-29.254,25.8
			c-8.67,0.619-17.716,0.066-26.2-1.771c-12.782-2.767-20.934-12.869-22.074-25.889c-0.841-9.605-0.982-19.287-1.093-28.938
			c-0.169-14.798-0.044-29.6-0.044-44.733c6.951,0,13.529,0,20.847,0c0,1.712,0,3.47,0,5.228c0,17.997-0.001,35.993,0.002,53.99
			c0,1.666,0.058,3.333,0.034,4.998c-0.276,19.134,15.084,22.786,27.621,19.163c5.336-1.542,8.815-5.415,9.541-11.086
			c0.57-4.447,0.891-8.955,0.913-13.439C983.489,57.886,983.434,38.409,983.434,18.37z"/>
		<path style="fill:#FFFFFF;" d="M176.595,118.191c2.11-5.424,3.958-10.203,5.826-14.974c10.556-26.966,21.175-53.907,31.594-80.926
			c1.213-3.146,2.64-4.451,6.081-4.195c5.456,0.406,12.239-1.585,16.06,0.994c3.805,2.569,4.736,9.485,6.784,14.553
			c10.85,26.853,21.657,53.724,32.473,80.59c0.426,1.058,0.794,2.14,1.343,3.628c-7.417,0-14.468,0-22.108,0
			c-2.346-6.008-4.951-12.266-7.206-18.646c-1.022-2.89-2.335-4.181-5.642-4.105c-10.327,0.238-20.666,0.201-30.995,0.016
			c-3.006-0.054-4.441,0.912-5.361,3.766c-1.786,5.539-3.835,11.005-6.055,16.385c-0.501,1.214-2.114,2.732-3.273,2.783
			C189.848,118.335,183.563,118.191,176.595,118.191z M239.132,77.978c-4.316-11.486-8.488-22.586-13.119-34.91
			c-4.531,12.366-8.6,23.468-12.792,34.91C222.005,77.978,230.24,77.978,239.132,77.978z"/>
		<path style="fill:#FFFFFF;" d="M545.848,118.196c-6.96,0-13.127,0.199-19.263-0.148c-1.43-0.081-3.389-1.731-4.018-3.143
			c-2.436-5.466-4.259-11.206-6.716-16.661c-0.615-1.365-2.727-2.879-4.183-2.912c-10.827-0.245-21.666-0.266-32.491,0.017
			c-1.539,0.04-3.746,1.779-4.406,3.277c-2.345,5.32-3.983,10.949-6.282,16.292c-0.605,1.406-2.578,3.047-4.008,3.13
			c-5.966,0.35-11.964,0.147-18.663,0.147c0.644-1.917,1.079-3.418,1.645-4.867c11.883-30.378,23.846-60.725,35.582-91.16
			c1.263-3.275,2.872-4.365,6.175-4.053c2.808,0.265,5.722,0.428,8.482-0.022c6.108-0.996,8.852,1.48,11.102,7.261
			c11.41,29.313,23.368,58.413,35.124,87.592C544.541,114.466,545.057,116.023,545.848,118.196z M508.116,77.92
			c-4.333-11.522-8.506-22.62-13.111-34.865c-4.534,12.395-8.61,23.539-12.753,34.865C491.036,77.92,499.27,77.92,508.116,77.92z"/>
		<path style="fill:#FFFFFF;" d="M627.088,118.057c-7.474,0-13.948,0-21.053,0c0-27.491,0-54.865,0-82.709
			c-10.044,0-19.471,0-29.246,0c0-5.847,0-11.227,0-16.894c26.355,0,52.581,0,79.113,0c0,5.425,0,10.68,0,16.501
			c-9.365,0-18.761,0-28.813,0C627.088,62.866,627.088,90.228,627.088,118.057z"/>
		<path style="fill:#FFFFFF;" d="M834.166,101.245c17.164,0,33.395,0,49.865,0c0,5.723,0,10.977,0,16.593
			c-23.296,0-46.51,0-70.124,0c0-32.9,0-65.91,0-99.295c6.516,0,13.085,0,20.258,0C834.166,45.723,834.166,73.068,834.166,101.245z"
			/>
		<path style="fill:#FFFFFF;" d="M101.371,62.81c-0.011,15.267-12.701,28.017-27.77,27.898c-16.149-0.127-28.33-12.365-28.257-28.39
			c0.068-14.99,12.67-27.652,27.528-27.658C89.026,34.654,101.382,46.859,101.371,62.81z"/>
		<path style="fill:#FFFFFF;" d="M0,28.098c8.888,5.587,16.639,10.363,24.249,15.352c1.055,0.692,1.792,2.366,2.045,3.704
			c2.128,11.255,3.916,22.578,6.269,33.783c0.586,2.789,2.325,5.81,4.442,7.718c8.26,7.448,16.983,14.382,25.289,21.782
			c1.622,1.445,2.877,4.056,3.058,6.233c0.702,8.394,0.899,16.83,1.335,26.336c-1.684-1.414-2.56-2.049-3.319-2.801
			C49.192,126.15,35.013,112.098,20.889,97.99c-1.377-1.376-2.999-2.95-3.48-4.712C11.609,72.015,6.002,50.698,0,28.098z"/>
		<path style="fill:#FFFFFF;" d="M80.02,142.724c0.435-9.852,0.622-18.824,1.391-27.746c0.166-1.925,2.137-4.008,3.78-5.441
			c8.386-7.31,17.021-14.334,25.36-21.695c1.689-1.491,3.129-3.871,3.572-6.065c2.262-11.197,4.041-22.491,6.294-33.689
			c0.398-1.98,1.842-4.256,3.493-5.388c7.07-4.847,14.398-9.318,22.705-14.608c-2.394,9.291-4.481,17.48-6.615,25.657
			c-3.258,12.481-6.498,24.967-9.879,37.415c-0.498,1.833-1.364,3.828-2.671,5.14c-15.03,15.097-30.177,30.078-45.304,45.079
			C81.826,141.7,81.369,141.882,80.02,142.724z"/>
		<path style="fill:#FFFFFF;" d="M6.718,16.547c14.5-3.962,28.066-7.67,41.632-11.374c0.802-0.219,1.655-0.307,2.409-0.632
			c15.424-6.639,30.508-5.475,46.187,0.116c13.656,4.87,28.032,7.72,43.118,11.737c-9.061,4.779-17.159,9.194-25.427,13.267
			c-1.342,0.661-3.549,0.14-5.161-0.409c-10.946-3.724-21.803-7.713-32.783-11.332c-2.093-0.69-4.806-0.716-6.888-0.019
			c-10.859,3.636-21.589,7.653-32.41,11.404c-1.609,0.558-3.811,1.123-5.145,0.471C23.929,25.706,15.777,21.292,6.718,16.547z"/>
	</g>
</g>
</svg>
